<svg xmlns="http://www.w3.org/2000/svg" width="52" height="14.08" viewBox="0 0 52 14.08"><path d="M941.67,539.05c0,.14.05.19.18.18H943c.19,0,.24-.05.23-.23v-4.15h.06l.1.22c.49,1.32,1,2.64,1.45,4a.26.26,0,0,0,.3.2h1c.16,0,.23-.05.29-.2.48-1.32,1-2.65,1.46-4a1.24,1.24,0,0,1,.1-.2h0v.24c0,1.3,0,2.59,0,3.88,0,.19,0,.26.24.26.36,0,.72,0,1.08,0,.19,0,.24,0,.24-.23,0-1.88,0-3.77,0-5.65,0-.17,0-.24-.22-.24h-2.09a.25.25,0,0,0-.27.19c-.38,1.08-.77,2.16-1.16,3.23-.05.15-.11.3-.19.5-.06-.14-.1-.22-.13-.3l-1.24-3.42c0-.12-.09-.2-.25-.2h-2.17c-.14,0-.19.06-.19.2C941.68,535.22,941.68,537.14,941.67,539.05Zm38.55-.06q0-1.71,0-3.42a1.48,1.48,0,0,1,0-.21.89.89,0,0,1,.25.27l2.29,3.44a.37.37,0,0,0,.25.15c.54,0,1.07,0,1.61,0,.14,0,.18-.05.18-.18,0-1.91,0-3.83,0-5.74,0-.16-.07-.2-.21-.2-.37,0-.74,0-1.11,0-.19,0-.25.06-.25.25,0,1.06,0,2.13,0,3.19a2.66,2.66,0,0,1,0,.28h-.05c-.06-.08-.13-.16-.18-.24-.74-1.11-1.47-2.21-2.22-3.31a.42.42,0,0,0-.25-.17h-1.71c-.13,0-.19,0-.19.17v5.76c0,.14,0,.18.18.18H980C980.16,539.24,980.22,539.19,980.22,539Zm-17.07.24.11,0-2-2.17c.22-.09.4-.15.57-.23a1.9,1.9,0,0,0,1-2.19,1.85,1.85,0,0,0-1.8-1.47c-1.23,0-2.46,0-3.69,0-.14,0-.2,0-.2.2q0,2.87,0,5.73c0,.15,0,.2.2.19h1.17c.18,0,.24,0,.24-.23,0-.57,0-1.15,0-1.73a.3.3,0,0,1,.05-.19.93.93,0,0,1,.72.11l1.65,1.9a.41.41,0,0,0,.26.13C962,539.24,962.6,539.23,963.15,539.23Zm-2.52-3.47H959c-.14,0-.19,0-.19-.18,0-.32,0-.65,0-1,0-.11,0-.17.16-.16.58,0,1.17,0,1.75,0a.6.6,0,0,1,.63.69A.66.66,0,0,1,960.63,535.76Zm5.22,9.11a2,2,0,0,0,1.06-2.91,2,2,0,0,0-1.78-.89c-1.14,0-2.28,0-3.42,0-.15,0-.21,0-.21.2V547c0,.16.06.2.21.2h1.08c.28,0,.28,0,.28-.28,0-.55,0-1.1,0-1.65,0-.07,0-.18.08-.2a.79.79,0,0,1,.82.25c.5.58,1,1.17,1.51,1.74a.41.41,0,0,0,.29.13h1.56l.19,0-2-2.16Zm-.81-1.18h-1v0h-.75c-.15,0-.22-.05-.22-.2,0-.31,0-.62,0-.92,0-.14,0-.2.19-.2h1.63a.65.65,0,0,1,.72.7A.59.59,0,0,1,965,543.69Zm-14.14-7.51c0,1,0,1.89,0,2.84,0,.16,0,.21.21.21h4.76c.18,0,.23-.06.22-.22a8.22,8.22,0,0,1,0-.86c0-.21-.05-.27-.26-.27h-3.09c-.2,0-.26-.06-.25-.25a4.47,4.47,0,0,0,0-.52c0-.3,0-.3.3-.3h3c.17,0,.24,0,.23-.22s0-.54,0-.81,0-.29-.28-.29h-3c-.18,0-.26,0-.25-.24a5.28,5.28,0,0,0,0-.56c0-.27,0-.27.28-.27q1.54,0,3.09,0c.17,0,.23-.06.22-.23s0-.58,0-.87-.06-.23-.23-.23h-4.74c-.17,0-.22.06-.22.23C950.91,534.29,950.9,535.23,950.9,536.18ZM970,542.4h3.07c.16,0,.23,0,.22-.21,0-.32,0-.63,0-.94,0-.16-.06-.2-.21-.2h-4.75c-.15,0-.2,0-.2.19V547c0,.13,0,.19.18.19h4.8c.13,0,.18,0,.18-.18,0-.32,0-.63,0-.94,0-.16-.06-.21-.21-.2H970c-.17,0-.24-.05-.23-.23a4.87,4.87,0,0,0,0-.54c0-.3,0-.3.29-.3h3c.17,0,.23-.06.22-.23s0-.61,0-.92c0-.15,0-.21-.2-.2h-3.27v-.75C969.74,542.4,969.74,542.4,970,542.4Zm-26.46,0h3.07c.16,0,.21,0,.21-.21,0-.31,0-.62,0-.93,0-.15,0-.21-.19-.21h-4.76c-.14,0-.2,0-.2.19q0,2.87,0,5.73c0,.14.05.19.18.19h4.8c.13,0,.18,0,.17-.17v-.84c0-.31,0-.31-.32-.31h-3c-.28,0-.29,0-.29-.3s0-.33,0-.5,0-.28.26-.27h3c.2,0,.25-.06.24-.25s0-.59,0-.88,0-.23-.22-.22h-3.25v-1Zm-4.89-9.1a.27.27,0,0,0-.28-.19h-1.69a.27.27,0,0,0-.29.2q-1.23,2.78-2.45,5.56l-.16.36h1.64c.05,0,.13-.09.16-.15l.38-.92a.22.22,0,0,1,.25-.17h2.57a.21.21,0,0,1,.24.16l.39.92c0,.07.12.16.18.16.54,0,1.08,0,1.66,0l0-.13C940.36,537.17,939.51,535.23,938.66,533.3Zm-2.07,3.36.88-2.09h.07l.87,2.09Zm34.17,2.57h1.55a.23.23,0,0,0,.26-.17c.12-.31.25-.61.37-.91a.24.24,0,0,1,.26-.18h2.54a.25.25,0,0,1,.27.18c.12.31.25.62.39.92,0,.07.1.15.16.15h1.66a1,1,0,0,1,0-.12c-.86-1.94-1.73-3.89-2.58-5.84a.23.23,0,0,0-.26-.15c-.53,0-1.06,0-1.58,0a.39.39,0,0,0-.45.29l-2,4.59C971.12,538.39,971,538.79,970.76,539.23Zm3.67-4.65h.08l.87,2.08h-1.82Zm11.32,10.18a1.4,1.4,0,0,0-1-1.12,4.06,4.06,0,0,0-1-.19c-.49,0-1,0-1.48,0a.51.51,0,0,1-.5-.73.58.58,0,0,1,.57-.31h2.52a.3.3,0,0,0,.22-.1c.19-.39.37-.79.56-1.22l-.17,0c-1.1,0-2.2,0-3.29,0a2.21,2.21,0,0,0-1.15.31,1.85,1.85,0,0,0-.84,2.07,1.6,1.6,0,0,0,.73,1,2.11,2.11,0,0,0,1,.29h1.69a.54.54,0,0,1,.59.49c0,.29-.17.5-.52.55l-.27,0h-2.84c-.2,0-.26.07-.25.27s0,.55,0,.83,0,.23.22.23h3.36a1.93,1.93,0,0,0,1.84-2.4Zm-7.09-1.15a3.24,3.24,0,0,0-1-.16c-.49,0-1,0-1.48,0a.49.49,0,0,1-.53-.59.53.53,0,0,1,.58-.45c.76,0,1.53,0,2.29,0a.53.53,0,0,0,.62-.39,9.68,9.68,0,0,1,.42-1h-3.32a3.55,3.55,0,0,0-.72.09,1.85,1.85,0,0,0-1.47,2.06,1.76,1.76,0,0,0,1.88,1.57h1.61a.51.51,0,0,1,.56.47c0,.35-.12.51-.49.56a1.63,1.63,0,0,1-.31,0H974.5c-.18,0-.24.06-.24.24a8.61,8.61,0,0,1,0,.88c0,.16.06.21.22.21,1.1,0,2.19,0,3.28,0a2.26,2.26,0,0,0,.88-.2,1.84,1.84,0,0,0,1.06-2.06A1.46,1.46,0,0,0,978.66,543.61Zm-25.21,2.21L952,544.19a.18.18,0,0,1,0-.28c.54-.59,1.07-1.2,1.61-1.8.3-.34.59-.68.9-1l-.08,0h-1.77a.35.35,0,0,0-.21.1l-1.39,1.61c-.11.14-.19.14-.31,0-.44-.53-.89-1-1.34-1.56a.39.39,0,0,0-.26-.15c-.62,0-1.25,0-1.92,0l.66.75,1.9,2.14a.17.17,0,0,1,0,.28c-.64.71-1.27,1.43-1.91,2.15l-.69.79h1.9a.3.3,0,0,0,.2-.12l1.4-1.63c.18-.21.19-.21.37,0a14.13,14.13,0,0,1,1,1.19,1.26,1.26,0,0,0,1.32.58c.39,0,.79,0,1.21,0a1,1,0,0,0-.11-.17Zm5.2-4.75c-1.17,0-2.33,0-3.49,0-.17,0-.21.05-.21.21,0,1,0,1.89,0,2.84s0,1.89,0,2.84c0,.16,0,.23.21.22h1.19c.15,0,.2,0,.2-.2,0-.46,0-.91,0-1.36s0-.45.45-.45a18.44,18.44,0,0,0,2,0,2,2,0,0,0,1.69-2.53A2,2,0,0,0,958.65,541.07Zm.48,2.11a.66.66,0,0,1-.72.63h-1.86c0-.45,0-.87,0-1.29,0,0,.09-.12.14-.12.59,0,1.18,0,1.77,0A.68.68,0,0,1,959.13,543.18Zm10.67-3.95a.21.21,0,0,0,.13-.07c.2-.41.4-.82.61-1.27h-1a1.4,1.4,0,0,1-1.48-1.12,2.82,2.82,0,0,1,0-.87,1.33,1.33,0,0,1,.88-1.27,3.43,3.43,0,0,1,.9-.13c.48,0,1,0,1.44,0,.11,0,.19,0,.19-.15,0-.36,0-.71,0-1.06a.2.2,0,0,0-.14-.15c-.83,0-1.66,0-2.48.06a2.53,2.53,0,0,0-2.24,1.92,3.87,3.87,0,0,0-.11,1.69,2.68,2.68,0,0,0,1.31,2A3.76,3.76,0,0,0,969.8,539.23Zm-5.92-3.06V539c0,.15,0,.21.2.2h1.17c.14,0,.2,0,.2-.18,0-1.92,0-3.83,0-5.74,0-.14-.05-.2-.2-.2-.36,0-.73,0-1.1,0-.21,0-.28,0-.27.27C963.89,534.31,963.88,535.24,963.88,536.17Z" transform="translate(-933.79 -533.11)" fill="#2557d6"/></svg>