<svg xmlns="http://www.w3.org/2000/svg" width="10.85" height="12.16" viewBox="0 0 10.85 12.16"><path d="M954.42,545.79a2.63,2.63,0,0,0,1-.2,1.09,1.09,0,0,0,.54-1.07V535.8a1.11,1.11,0,0,0-.5-1.06,2.66,2.66,0,0,0-1.08-.2v-.46H960a8.14,8.14,0,0,1,2.67.37,2.56,2.56,0,0,1,2,2.53,2.17,2.17,0,0,1-.82,1.77,3.91,3.91,0,0,1-1.76.83v.17a5,5,0,0,1,1.74.65,2.84,2.84,0,0,1,.06,4.91,6.46,6.46,0,0,1-3.67.93h-5.79Zm6.69-6.8a2.62,2.62,0,0,0,.58-1.93,3.63,3.63,0,0,0-.38-1.73,1.48,1.48,0,0,0-1.44-.71,1.27,1.27,0,0,0-.78.19.89.89,0,0,0-.22.68v4A3.34,3.34,0,0,0,961.11,539Zm-2.1,6.29a.91.91,0,0,0,.85.38,2.1,2.1,0,0,0,1.79-.69,3.31,3.31,0,0,0,.51-2,2.67,2.67,0,0,0-1.13-2.55,4.38,4.38,0,0,0-2.16-.36v4.5A1.64,1.64,0,0,0,959,545.28Z" transform="translate(-954.42 -534.08)"/></svg>