<svg xmlns="http://www.w3.org/2000/svg" width="78.16" height="18" viewBox="0 0 78.16 18"><path d="M928.68,541.76a2.79,2.79,0,0,1-.71,1.57,2.1,2.1,0,0,1-1.59.57,2,2,0,0,1-1.13-.3,2.5,2.5,0,0,1-.74-.78,3.83,3.83,0,0,1-.4-1.09,6.08,6.08,0,0,1-.12-1.19,6.38,6.38,0,0,1,.12-1.22,3.81,3.81,0,0,1,.42-1.11,2.59,2.59,0,0,1,.77-.81,2,2,0,0,1,1.15-.32,1.91,1.91,0,0,1,2.12,1.8l0,.09h3.15v-.11a4.26,4.26,0,0,0-.53-1.88,4.11,4.11,0,0,0-1.19-1.33,5.09,5.09,0,0,0-1.64-.79,7.1,7.1,0,0,0-1.91-.26,6.14,6.14,0,0,0-2.42.45,5.2,5.2,0,0,0-1.8,1.27,5.6,5.6,0,0,0-1.12,1.93,7.45,7.45,0,0,0-.37,2.4,6.31,6.31,0,0,0,.41,2.3,5.29,5.29,0,0,0,1.15,1.81,5.23,5.23,0,0,0,1.78,1.18,6.17,6.17,0,0,0,2.31.42,5.59,5.59,0,0,0,3.65-1.17,5.1,5.1,0,0,0,1.74-3.4v-.12h-3.12Zm10.84-7.06a3.73,3.73,0,0,0-1.11.17,4.08,4.08,0,0,0-1,.48,4,4,0,0,0-.84.75,4.83,4.83,0,0,0-.42.62V535h-3v11h3.17v-5a6.24,6.24,0,0,1,.14-1.33,3,3,0,0,1,.48-1.06,2.29,2.29,0,0,1,.86-.7,3.48,3.48,0,0,1,1.89-.24l.49.08.13,0v-3l-.08,0A2.53,2.53,0,0,0,939.52,534.7Zm10.8,2a5.08,5.08,0,0,0-1.72-1.46,5.27,5.27,0,0,0-2.45-.54,5.62,5.62,0,0,0-2.28.45,5.18,5.18,0,0,0-1.78,1.22,5.36,5.36,0,0,0-1.15,1.84,6.37,6.37,0,0,0-.4,2.29,6.66,6.66,0,0,0,.39,2.33,5.31,5.31,0,0,0,1.12,1.83,4.89,4.89,0,0,0,1.77,1.19,6.36,6.36,0,0,0,2.33.41,5.76,5.76,0,0,0,3.19-.85,5.06,5.06,0,0,0,2-2.83l.05-.14h-2.84l0,.08a1.74,1.74,0,0,1-.75.89,2.51,2.51,0,0,1-1.48.43,2.55,2.55,0,0,1-1.85-.62h0a2.77,2.77,0,0,1-.69-1.9h7.77v-.1a7.53,7.53,0,0,0-.21-2.43A6.15,6.15,0,0,0,950.32,536.7Zm-6.6,2.53a3.53,3.53,0,0,1,.12-.58,2,2,0,0,1,.38-.71,2.07,2.07,0,0,1,.72-.57,2.47,2.47,0,0,1,1.13-.23,2,2,0,0,1,1.54.55,3.24,3.24,0,0,1,.69,1.54Zm19.21,4.26v-5.62a2.7,2.7,0,0,0-.46-1.64,3.2,3.2,0,0,0-1.16-1,5.45,5.45,0,0,0-1.56-.46,13.47,13.47,0,0,0-1.66-.11,9.26,9.26,0,0,0-1.81.18,5.05,5.05,0,0,0-1.63.61,3.6,3.6,0,0,0-1.2,1.13,3.42,3.42,0,0,0-.51,1.49c0,.29,0,.39,0,.57H956a1.65,1.65,0,0,0,.11-.41,1.49,1.49,0,0,1,.53-1,2.1,2.1,0,0,1,1.31-.36,5.58,5.58,0,0,1,.73.05,1.62,1.62,0,0,1,.56.2,1,1,0,0,1,.38.4,1.41,1.41,0,0,1,.15.71.71.71,0,0,1-.24.62,2,2,0,0,1-.75.34,9.81,9.81,0,0,1-1.13.19c-.43,0-.87.09-1.32.16a12.3,12.3,0,0,0-1.34.29,3.86,3.86,0,0,0-1.2.54,3,3,0,0,0-.87,1,3.31,3.31,0,0,0-.33,1.56,3.6,3.6,0,0,0,.29,1.49,3,3,0,0,0,.81,1,3.43,3.43,0,0,0,1.21.6,5.28,5.28,0,0,0,1.47.19,7.1,7.1,0,0,0,2-.29,4.17,4.17,0,0,0,1.59-.7c.09.38.11.66.43.72h3.13C963,545.68,962.93,544.16,962.93,543.49Zm-3.17-1.78c0,.16,0,.38,0,.66a2.42,2.42,0,0,1-.27.78,1.8,1.8,0,0,1-.68.66,2.46,2.46,0,0,1-1.3.28,3.71,3.71,0,0,1-.67-.06,1.58,1.58,0,0,1-.55-.21,1,1,0,0,1-.36-.38,1.59,1.59,0,0,1,0-1.26,1.1,1.1,0,0,1,.36-.41,1.56,1.56,0,0,1,.53-.27,4.74,4.74,0,0,1,.65-.16c.23-.05.46-.08.7-.11l.69-.1.62-.16a1.68,1.68,0,0,0,.33-.16Zm38.6,1.78v-5.62a2.77,2.77,0,0,0-.46-1.64,3.24,3.24,0,0,0-1.17-1,5.48,5.48,0,0,0-1.55-.46,13.51,13.51,0,0,0-1.67-.11,9.08,9.08,0,0,0-1.8.18,5.05,5.05,0,0,0-1.63.61,3.51,3.51,0,0,0-1.2,1.13,3.43,3.43,0,0,0-.52,1.49c0,.29,0,.39,0,.57h3.09a1.65,1.65,0,0,0,.11-.41,1.48,1.48,0,0,1,.52-1,2.16,2.16,0,0,1,1.32-.36,5.43,5.43,0,0,1,.72.05,1.6,1.6,0,0,1,.57.2,1,1,0,0,1,.38.4,1.54,1.54,0,0,1,.14.71.71.71,0,0,1-.23.62,2.09,2.09,0,0,1-.75.34,9.65,9.65,0,0,1-1.14.19c-.42,0-.87.09-1.32.16a12.65,12.65,0,0,0-1.33.29,3.86,3.86,0,0,0-1.2.54,2.79,2.79,0,0,0-.87,1,3.3,3.3,0,0,0-.34,1.56,3.6,3.6,0,0,0,.29,1.49,3,3,0,0,0,.82,1,3.47,3.47,0,0,0,1.2.6,5.33,5.33,0,0,0,1.47.19,7,7,0,0,0,2-.29,4.29,4.29,0,0,0,1.6-.7c.08.38.11.66.42.72h3.13C998.39,545.68,998.36,544.16,998.36,543.49Zm-3.18-1.78c0,.16,0,.38,0,.66a2,2,0,0,1-.27.78,1.77,1.77,0,0,1-.67.66,2.46,2.46,0,0,1-1.3.28,3.63,3.63,0,0,1-.67-.06,1.5,1.5,0,0,1-.55-.21,1,1,0,0,1-.36-.38,1.59,1.59,0,0,1,0-1.26,1.1,1.1,0,0,1,.36-.41,1.56,1.56,0,0,1,.53-.27,5,5,0,0,1,.64-.16c.23-.05.47-.08.71-.11l.68-.1c.22,0,.43-.1.62-.16a1.68,1.68,0,0,0,.33-.16Zm-26.35-9.53h-3.17V535h-1.79v2.19h1.79v6.26a3,3,0,0,0,.28,1.37,2.05,2.05,0,0,0,.79.81,3,3,0,0,0,1.12.38,9.19,9.19,0,0,0,1.32.1l.9,0a2.71,2.71,0,0,0,.64-.1v-2.34a4.28,4.28,0,0,1-.73.11,1.37,1.37,0,0,1-.93-.22,1.4,1.4,0,0,1-.22-.93v-5.41H971V535h-2.18Zm3.7,13.81h3.17V535h-3.17Zm0-12.11h3.17v-2.72h-3.17ZM984.87,535l-2.3,6.16L980.18,535H976.8l2.57,7.47h2.71l-1.12,3c-.31.82-.69,1-1,1a3.91,3.91,0,0,1-2.16-.51v2.66a4.54,4.54,0,0,0,2.24.5,4.36,4.36,0,0,0,2.44-.58,3.81,3.81,0,0,0,1.38-1.93L988.17,535Z" transform="translate(-920.76 -531.16)" fill="#2873ff"/></svg>