<svg xmlns="http://www.w3.org/2000/svg" width="40" height="33.59" viewBox="0 0 40 33.59"><path d="M945.91,529.67v21a.24.24,0,0,0,.24.24h27.38a.24.24,0,0,0,.24-.24v-21a.24.24,0,0,0-.24-.24H946.15A.24.24,0,0,0,945.91,529.67Zm27.38,20.74H947l9.56-14.74,7,10.62a.21.21,0,0,0,.17.1.24.24,0,0,0,.2-.07l4.2-4.27,5,4.46a.27.27,0,0,0,.16.06Zm-26.9-20.5h26.9V546l-5-4.46a.25.25,0,0,0-.33,0l-4.16,4.22-7.07-10.68a.25.25,0,0,0-.2-.1.24.24,0,0,0-.2.11l-9.81,15.13a.28.28,0,0,0,0,.18h-.12Zm33.15,25.73a.29.29,0,0,0-.3.3v.42h-.42a.29.29,0,0,0-.3.3.3.3,0,0,0,.3.3h.72a.3.3,0,0,0,.3-.3v-.72A.29.29,0,0,0,979.54,555.64Zm-22.28.72h-1.4a.29.29,0,0,0-.3.3.3.3,0,0,0,.3.3h1.4a.3.3,0,0,0,.3-.3A.29.29,0,0,0,957.26,556.36Zm16.4,0h-1.4a.29.29,0,0,0-.3.3.3.3,0,0,0,.3.3h1.4a.3.3,0,0,0,.3-.3A.29.29,0,0,0,973.66,556.36Zm3.28,0h-1.4a.29.29,0,0,0-.3.3.3.3,0,0,0,.3.3h1.4a.3.3,0,0,0,.3-.3A.29.29,0,0,0,976.94,556.36Zm-13.12,0h-1.4a.29.29,0,0,0-.3.3.3.3,0,0,0,.3.3h1.4a.3.3,0,0,0,.3-.3A.29.29,0,0,0,963.82,556.36Zm3.28,0h-1.4a.29.29,0,0,0-.3.3.3.3,0,0,0,.3.3h1.4a.3.3,0,0,0,.3-.3A.29.29,0,0,0,967.1,556.36Zm3.28,0H969a.29.29,0,0,0-.3.3.3.3,0,0,0,.3.3h1.4a.3.3,0,0,0,.3-.3A.29.29,0,0,0,970.38,556.36Zm-26.24,0h-1.41a.3.3,0,0,0-.3.3.31.31,0,0,0,.3.3h1.41a.3.3,0,0,0,.3-.3A.29.29,0,0,0,944.14,556.36Zm3.28,0H946a.3.3,0,0,0-.31.3.31.31,0,0,0,.31.3h1.4a.3.3,0,0,0,.3-.3A.29.29,0,0,0,947.42,556.36Zm6.56,0h-1.4a.29.29,0,0,0-.3.3.3.3,0,0,0,.3.3H954a.3.3,0,0,0,.3-.3A.29.29,0,0,0,954,556.36Zm6.56,0h-1.4a.29.29,0,0,0-.3.3.3.3,0,0,0,.3.3h1.4a.3.3,0,0,0,.3-.3A.29.29,0,0,0,960.54,556.36Zm-9.84,0h-1.4a.29.29,0,0,0-.3.3.3.3,0,0,0,.3.3h1.4a.3.3,0,0,0,.3-.3A.29.29,0,0,0,950.7,556.36Zm-9.84,0h-.42v-.42a.3.3,0,1,0-.6,0v.72a.3.3,0,0,0,.3.3h.72a.3.3,0,0,0,.3-.3A.29.29,0,0,0,940.86,556.36Zm-.72-2a.29.29,0,0,0,.3-.3v-1.41a.3.3,0,1,0-.6,0v1.41A.29.29,0,0,0,940.14,554.35Zm0-13.18a.3.3,0,0,0,.3-.3v-1.42a.3.3,0,1,0-.6,0v1.42A.3.3,0,0,0,940.14,541.17Zm0-3.3a.29.29,0,0,0,.3-.3v-1.41a.3.3,0,1,0-.6,0v1.41A.29.29,0,0,0,940.14,537.87Zm0-3.3a.29.29,0,0,0,.3-.3v-1.41a.3.3,0,1,0-.6,0v1.41A.29.29,0,0,0,940.14,534.57Zm0-6.59a.29.29,0,0,0,.3-.3v-1.41a.3.3,0,1,0-.6,0v1.41A.29.29,0,0,0,940.14,528Zm0,19.78a.29.29,0,0,0,.3-.3v-1.41a.3.3,0,1,0-.6,0v1.41A.29.29,0,0,0,940.14,547.76Zm0-3.3a.29.29,0,0,0,.3-.3v-1.41a.3.3,0,1,0-.6,0v1.41A.29.29,0,0,0,940.14,544.46Zm0,6.6a.3.3,0,0,0,.3-.3v-1.42a.3.3,0,1,0-.6,0v1.42A.3.3,0,0,0,940.14,551.06Zm0-19.78a.3.3,0,0,0,.3-.3v-1.42a.3.3,0,1,0-.6,0V531A.3.3,0,0,0,940.14,531.28Zm.72-7.92h-.72a.3.3,0,0,0-.3.3v.72a.3.3,0,1,0,.6,0V524h.42a.29.29,0,0,0,.3-.3A.3.3,0,0,0,940.86,523.36Zm15,.6h1.4a.29.29,0,0,0,.3-.3.3.3,0,0,0-.3-.3h-1.4a.3.3,0,0,0-.3.3A.29.29,0,0,0,955.86,524Zm-3.28,0H954a.29.29,0,0,0,.3-.3.3.3,0,0,0-.3-.3h-1.4a.3.3,0,0,0-.3.3A.29.29,0,0,0,952.58,524ZM946,524h1.4a.29.29,0,0,0,.3-.3.3.3,0,0,0-.3-.3H946a.3.3,0,0,0-.3.3A.29.29,0,0,0,946,524Zm3.28,0h1.4a.29.29,0,0,0,.3-.3.3.3,0,0,0-.3-.3h-1.4a.3.3,0,0,0-.3.3A.29.29,0,0,0,949.3,524Zm16.4,0h1.4a.29.29,0,0,0,.3-.3.3.3,0,0,0-.3-.3h-1.4a.3.3,0,0,0-.3.3A.29.29,0,0,0,965.7,524Zm-6.56,0h1.4a.29.29,0,0,0,.3-.3.3.3,0,0,0-.3-.3h-1.4a.3.3,0,0,0-.3.3A.29.29,0,0,0,959.14,524Zm3.28,0h1.4a.29.29,0,0,0,.3-.3.3.3,0,0,0-.3-.3h-1.4a.3.3,0,0,0-.3.3A.29.29,0,0,0,962.42,524Zm6.56,0h1.4a.29.29,0,0,0,.3-.3.3.3,0,0,0-.3-.3H969a.3.3,0,0,0-.3.3A.29.29,0,0,0,969,524Zm4.68-.6h-1.4a.3.3,0,0,0-.3.3.29.29,0,0,0,.3.3h1.4a.29.29,0,0,0,.3-.3A.3.3,0,0,0,973.66,523.36Zm-29.52,0h-1.4a.31.31,0,0,0-.31.3.3.3,0,0,0,.31.3h1.4a.29.29,0,0,0,.3-.3A.3.3,0,0,0,944.14,523.36Zm32.8,0h-1.4a.3.3,0,0,0-.3.3.29.29,0,0,0,.3.3h1.4a.29.29,0,0,0,.3-.3A.3.3,0,0,0,976.94,523.36Zm2.6,0h-.72a.3.3,0,0,0-.3.3.29.29,0,0,0,.3.3h.42v.42a.3.3,0,1,0,.6,0v-.72A.3.3,0,0,0,979.54,523.36Zm0,22.39a.29.29,0,0,0-.3.3v1.41a.3.3,0,1,0,.6,0v-1.41A.29.29,0,0,0,979.54,545.75Zm0-9.89a.29.29,0,0,0-.3.3v1.41a.3.3,0,1,0,.6,0v-1.41A.29.29,0,0,0,979.54,535.86Zm0-6.6a.3.3,0,0,0-.3.3V531a.3.3,0,1,0,.6,0v-1.42A.3.3,0,0,0,979.54,529.26Zm0-3.29a.29.29,0,0,0-.3.3v1.41a.3.3,0,1,0,.6,0v-1.41A.29.29,0,0,0,979.54,526Zm0,6.59a.3.3,0,0,0-.3.3v1.41a.3.3,0,1,0,.6,0v-1.41A.3.3,0,0,0,979.54,532.56Zm0,16.48a.3.3,0,0,0-.3.3v1.42a.3.3,0,1,0,.6,0v-1.42A.3.3,0,0,0,979.54,549Zm0,3.3a.29.29,0,0,0-.3.3v1.41a.3.3,0,1,0,.6,0v-1.41A.29.29,0,0,0,979.54,552.34Zm0-9.89a.29.29,0,0,0-.3.3v1.41a.3.3,0,1,0,.6,0v-1.41A.29.29,0,0,0,979.54,542.45Zm0-3.3a.3.3,0,0,0-.3.3v1.42a.3.3,0,1,0,.6,0v-1.42A.3.3,0,0,0,979.54,539.15Zm-12.79-2.23a1.87,1.87,0,1,0-1.87-1.86A1.87,1.87,0,0,0,966.75,536.92Zm0-3.25a1.39,1.39,0,1,1-1.38,1.39A1.38,1.38,0,0,1,966.75,533.67Z" transform="translate(-939.84 -523.36)" fill="#2d78fa"/></svg>