<svg xmlns="http://www.w3.org/2000/svg" width="38.6" height="50" viewBox="0 0 38.6 50"><path d="M978.93,540.18a7.13,7.13,0,0,0-5.73-6.53c-.58-.15-1.19-.22-2.12-.39,0-2.75.18-5.44,0-8.1a11.26,11.26,0,0,0-22.39.05c-.21,2.33-.14,4.7-.14,7,0,.81-.22,1.12-1.08,1.23-3.83.52-6.53,3.14-6.69,7-.23,5.59-.29,11.2-.06,16.78.2,4.87,3.25,7.69,8.11,7.77q11.09.18,22.17,0c4.83-.08,7.85-2.87,8-7.67C979.23,551.66,979.14,545.91,978.93,540.18ZM952,525.61a7.83,7.83,0,0,1,8.23-7.09,8,8,0,0,1,7.61,7.65c.14,2.29,0,4.6,0,7H951.93A71.24,71.24,0,0,1,952,525.61Zm23.8,30.76c0,3.65-1.77,5.29-5.44,5.35h-10.6c-3.48,0-7,0-10.45,0s-5.32-1.69-5.36-5.27q-.09-7.28,0-14.55c0-3.38,1.66-5.13,5-5.17,7.25-.1,14.5-.09,21.76,0,3.42,0,5,1.79,5.08,5.25Q975.86,549.16,975.78,556.37Zm-15.85-12.8a3.17,3.17,0,0,0-3.09,1.86c-.6,1.29-.69,2.87.49,3.61,1.71,1.08,1.41,2.53,1.44,4,0,.28-.08.64.06.82.28.37.69.89,1,.89a1.46,1.46,0,0,0,1-.91,5.59,5.59,0,0,0,.06-2,2.33,2.33,0,0,1,1.1-2.46,3.12,3.12,0,0,0,1-3.8A3.24,3.24,0,0,0,959.93,543.57Z" transform="translate(-940.53 -515.15)" fill="#fff"/></svg>