<svg xmlns="http://www.w3.org/2000/svg" width="153.07" height="46.11" viewBox="0 0 153.07 46.11"><text transform="translate(0 39.4)" font-size="21" font-family="Inter-SemiBold, Inter" font-weight="600">CONTRIBU<tspan x="109.94" y="0" letter-spacing="-0.03em">T</tspan><tspan x="123.13" y="0" letter-spacing="0em">OR</tspan></text><path d="M886.09,531.39a5.43,5.43,0,0,0-2.52,1.27c-.37.33-.64.75-.49,1.06a10.15,10.15,0,0,0,.6,1.28c.25.42.35.54.54.41a10.43,10.43,0,0,0,2.18-3.74C886.42,531.42,886.31,531.37,886.09,531.39Zm14.79-14.78a25.75,25.75,0,0,0-4.31.58c-3.79.67-8.4,2-10.65,5a6.44,6.44,0,0,0,.76,8.65c2,2.12,6.08,2.24,9.08-.28,2.2-1.85,3.38-5.33,4.12-8.7.28-1.24.58-2.53.78-3.66C900.77,517.65,901.05,516.66,900.88,516.61Z" transform="translate(-880.92 -516.6)" fill="#91c332"/><path d="M916.93,523.07a4.7,4.7,0,0,0-4.23,2.24,4.82,4.82,0,0,0-.59,2.42,5.15,5.15,0,0,0,1.12,3.21,4.47,4.47,0,0,0,3.47,1.44,4.14,4.14,0,0,0,3.66-1.56.78.78,0,0,0-1.21-1,3.23,3.23,0,0,1-2.34,1,3,3,0,0,1-2.82-2.5h6.16c.43,0,1-.33.87-1.18s-1-4.11-4.09-4.11M914,526.91a2.7,2.7,0,0,1,2.7-2.4,2.45,2.45,0,0,1,2.43,2.4Zm24.57-3.84a4.7,4.7,0,0,0-4.23,2.24,4.82,4.82,0,0,0-.59,2.42,5.15,5.15,0,0,0,1.12,3.21,4.47,4.47,0,0,0,3.47,1.44,4.15,4.15,0,0,0,3.66-1.56.78.78,0,0,0-1.21-1,3.23,3.23,0,0,1-2.34,1,3,3,0,0,1-2.82-2.5h6.16c.43,0,1-.33.87-1.18s-1-4.11-4.09-4.11m-2.91,3.84a2.7,2.7,0,0,1,2.7-2.4,2.45,2.45,0,0,1,2.43,2.4Zm-7.93-3.7a4,4,0,0,0-1-.14,3.2,3.2,0,0,0-2.77,1.44v-.27c0-1-.63-1.17-.93-1.17a.81.81,0,0,0-.91.88v7.26c0,1,.44,1.17.83,1.17a1,1,0,0,0,1-1.15v-4a2.74,2.74,0,0,1,1.31-2.33,2.66,2.66,0,0,1,2.09,0,.86.86,0,1,0,.35-1.68M911,523.16a1.06,1.06,0,0,0-1.45.67l-2.42,6.22c0,.07-.07.1-.1,0l-2.42-6.22a1.06,1.06,0,0,0-1.45-.67c-.43.25-.58.63-.34,1.35l2.82,6.77a1.46,1.46,0,0,0,1.44,1.1c.74,0,1.09-.26,1.44-1.1l2.82-6.77c.24-.72.09-1.1-.34-1.35m22.27,7.65c-.38-.27-.67-.06-1.19,0-.78.05-1-.79-1-1.31v-5h1.36c1.24,0,1.25-1.44.15-1.44h-1.51v-1.41c0-.81-.4-1.12-.88-1.12s-1,.31-1,1.12v7.46a3.23,3.23,0,0,0,.92,2.7,2.84,2.84,0,0,0,2.77.36c.81-.34.72-1.1.34-1.37m15-3.17,2.52-2.94c.56-.64.5-1.07.2-1.43s-.87-.47-1.56.34l-2.25,2.66-2.11-2.67a1.12,1.12,0,0,0-1.65-.39c-.4.35-.47.78-.07,1.48l2.52,3.12-2.42,2.85c-.67.66-.61,1.28-.25,1.57s1,.18,1.48-.41l2.28-2.65,2.13,2.65a1.23,1.23,0,0,0,1.56.46c.4-.24.64-.9,0-1.61Z" transform="translate(-880.92 -516.6)" fill="#231f20"/><path d="M963.46,524.13a3.21,3.21,0,0,0-1-.69,3.28,3.28,0,0,0-1.3-.26,3,3,0,0,0-1.45.33,3.75,3.75,0,0,0-1.06.84,3.13,3.13,0,0,0-1-.85,3.35,3.35,0,0,0-3.8.63,3.42,3.42,0,0,0-.68,1,3.27,3.27,0,0,0-.24,1.25v5.31a.47.47,0,0,0,.16.37.53.53,0,0,0,.39.15.55.55,0,0,0,.37-.15.48.48,0,0,0,.17-.37v-5.31a2.45,2.45,0,0,1,.15-.85,1.92,1.92,0,0,1,.45-.69,1.84,1.84,0,0,1,.68-.47,2.08,2.08,0,0,1,.87-.18,1.92,1.92,0,0,1,.84.18,1.62,1.62,0,0,1,.62.47,2,2,0,0,1,.39.68,2.66,2.66,0,0,1,.14.85v5.32a.46.46,0,0,0,.15.37.53.53,0,0,0,.39.15.52.52,0,0,0,.38-.15.47.47,0,0,0,.16-.37v-5.31a2.7,2.7,0,0,1,.13-.85,1.78,1.78,0,0,1,.38-.69,1.62,1.62,0,0,1,.62-.47,1.86,1.86,0,0,1,.84-.18,2.1,2.1,0,0,1,.88.18,2,2,0,0,1,.69.47,1.9,1.9,0,0,1,.44.69,2.25,2.25,0,0,1,.16.85v5.31a.5.5,0,0,0,.15.37.56.56,0,0,0,.39.15.55.55,0,0,0,.38-.15.47.47,0,0,0,.16-.37v-5.31a3.2,3.2,0,0,0-.92-2.28Zm8.59.14a.53.53,0,0,0,.39-.16.48.48,0,0,0,0-.72.53.53,0,0,0-.39-.16h-5.72a.49.49,0,0,0-.38.16.46.46,0,0,0-.16.37v8a.47.47,0,0,0,.16.37.55.55,0,0,0,.38.15h5.72a.53.53,0,0,0,.39-.16.46.46,0,0,0,.16-.36.47.47,0,0,0-.16-.37.56.56,0,0,0-.39-.15h-5.17v-2.81h3a.53.53,0,0,0,.39-.15.51.51,0,0,0,0-.74.56.56,0,0,0-.39-.14h-3v-3.09Zm7.55-.1a3.25,3.25,0,0,0-1.08-.68,3.54,3.54,0,0,0-1.33-.26h-2.85a.5.5,0,0,0-.39.16.49.49,0,0,0-.16.37v8a.48.48,0,0,0,.17.37.54.54,0,0,0,.38.15h2.86a3.5,3.5,0,0,0,1.33-.25,3.4,3.4,0,0,0,1.07-.69,3.23,3.23,0,0,0,.73-1,2.89,2.89,0,0,0,.27-1.25v-2.59a2.93,2.93,0,0,0-.27-1.25A3.47,3.47,0,0,0,979.6,524.17Zm-.08,4.86a2,2,0,0,1-.18.85,2.12,2.12,0,0,1-.49.69,2.36,2.36,0,0,1-.74.46,2.46,2.46,0,0,1-.91.17h-2.32v-6.93h2.31a2.46,2.46,0,0,1,.91.17,2.32,2.32,0,0,1,.75.47,2.07,2.07,0,0,1,.67,1.53Zm3.41-5.8a.49.49,0,0,0-.38.16.46.46,0,0,0-.16.37v8a.47.47,0,0,0,.16.37.55.55,0,0,0,.38.15.52.52,0,0,0,.38-.15.47.47,0,0,0,.16-.37v-8a.46.46,0,0,0-.16-.37A.52.52,0,0,0,982.93,523.23Zm10.07,8.3-3.6-8a.53.53,0,0,0-.28-.27.6.6,0,0,0-.22,0,.5.5,0,0,0-.5.31l-3.59,8a.63.63,0,0,0,0,.22.5.5,0,0,0,.15.34.47.47,0,0,0,.38.17.5.5,0,0,0,.29-.09.52.52,0,0,0,.21-.23l3.11-7,3.11,7a.51.51,0,0,0,.5.32.51.51,0,0,0,.39-.17.48.48,0,0,0,.14-.34A.6.6,0,0,0,993,531.53Z" transform="translate(-880.92 -516.6)" fill="#231f20"/></svg>