<svg xmlns="http://www.w3.org/2000/svg" width="27.81" height="21.56" viewBox="0 0 27.81 21.56"><path d="M950.38,548.92a1,1,0,0,0-1,.35.94.94,0,0,0-1.42-.11l0-.19h-.47v2.25h.49v-.39c0-.32,0-.64,0-1a.5.5,0,0,1,.55-.5c.3,0,.47.17.49.5,0,.18,0,.36,0,.55v.8h.51v-.3c0-.36,0-.73,0-1.09a.48.48,0,0,1,.53-.46.44.44,0,0,1,.49.45,2.23,2.23,0,0,1,0,.37v1H951c0-.55,0-1.09,0-1.62A.74.74,0,0,0,950.38,548.92Zm21.57.23c-.77-.41-1.4-.26-1.72.37a1.27,1.27,0,0,0,.24,1.47,1.07,1.07,0,0,0,1.47,0l0,.2h.46v-3.16H972Zm-.65,1.67a.69.69,0,0,1-.69-.74.69.69,0,1,1,1.38,0A.69.69,0,0,1,971.3,550.82ZM967.8,549a.37.37,0,0,0-.48.19,1.11,1.11,0,0,0-1.52.1,1.31,1.31,0,0,0,0,1.66,1.12,1.12,0,0,0,1.55.12l0,.19h.47v-2.17A.12.12,0,0,0,967.8,549Zm-1.11,1.86a.73.73,0,1,1,.69-.71A.67.67,0,0,1,966.69,550.82Zm-13.35-1.66a1.11,1.11,0,0,0-1.56.13,1.27,1.27,0,0,0,0,1.64,1.1,1.1,0,0,0,1.53.08l0,.2h.46V549h-.46Zm-.64,1.66a.73.73,0,1,1,.68-.74A.67.67,0,0,1,952.7,550.82Zm8.3-1.25a1.09,1.09,0,0,0-1.86-.28,1.33,1.33,0,0,0,.1,1.7,1.36,1.36,0,0,0,1.74,0l-.22-.33c-.77.34-1.28.22-1.33-.34h1.7A3.7,3.7,0,0,0,961,549.57Zm-1.56.31a.53.53,0,0,1,.52-.54.54.54,0,0,1,.6.54Zm-3.52.07a3,3,0,0,0-.43-.1,1.44,1.44,0,0,1-.36-.07c-.07,0-.17-.12-.17-.18a.31.31,0,0,1,.16-.21,1.07,1.07,0,0,1,.4,0c.2,0,.38.1.59.15l.18-.35a1.61,1.61,0,0,0-1.53-.11.64.64,0,0,0-.33.64.57.57,0,0,0,.4.52,2.92,2.92,0,0,0,.4.1,2.72,2.72,0,0,1,.43.09c.07,0,.17.12.17.19a.27.27,0,0,1-.16.2.88.88,0,0,1-.42.06,6.72,6.72,0,0,1-.71-.18l-.2.32a1.66,1.66,0,0,0,1.66.16.65.65,0,0,0,.36-.65A.6.6,0,0,0,955.92,550Zm2.08.86c-.17,0-.32-.06-.32-.25,0-.37,0-.75,0-1.15h.78v-.47h-.79v-.67h-.51v.67l-.43,0v.46h.45c0,.42,0,.81,0,1.2a.6.6,0,0,0,.4.6,1.06,1.06,0,0,0,.87,0,.22.22,0,0,0,.1-.15,2.26,2.26,0,0,0-.1-.31A3.13,3.13,0,0,1,958,550.81Zm5.88-.23a.83.83,0,0,1,0-1c.22-.3.54-.32,1.14-.08l.09-.14c.16-.26.16-.28-.12-.39a1.3,1.3,0,0,0-1.34.14,1.15,1.15,0,0,0-.4,1.22,1,1,0,0,0,.82.87,1.22,1.22,0,0,0,1.18-.23l-.23-.37C964.48,550.89,964.12,550.87,963.88,550.58Zm-1.75-1.41,0-.21h-.45v2.25h.48c0-.41,0-.8,0-1.19,0-.55.2-.71.73-.62a.09.09,0,0,0,.07,0l.15-.43A.79.79,0,0,0,962.13,549.17Zm6.89,0,0-.21h-.46v2.25H969V550c0-.53.2-.7.72-.61h.09L970,549A.79.79,0,0,0,969,549.18Z" transform="translate(-946 -529.74)"/><path d="M971.59,544.07a8.58,8.58,0,0,0-11.11-12.89,9.28,9.28,0,0,1,0,14.3A8.55,8.55,0,0,0,971.59,544.07Z" transform="translate(-946 -529.74)" fill="#f79f1b"/><path d="M949,544.82a8.47,8.47,0,0,0,10.33.64,9.28,9.28,0,0,1,0-14.28A8.58,8.58,0,0,0,949,544.82Z" transform="translate(-946 -529.74)" fill="#eb001a"/><path d="M959.71,544.92c.14.12.23.14.38,0a8.59,8.59,0,0,0,0-13.22c-.15-.12-.23-.1-.37,0A8.59,8.59,0,0,0,959.71,544.92Z" transform="translate(-946 -529.74)" fill="#ff5f00"/></svg>