<svg xmlns="http://www.w3.org/2000/svg" width="48.14" height="12.8" viewBox="0 0 48.14 12.8"><path d="M944.78,536.87a3.3,3.3,0,0,0,0-1.13,2.22,2.22,0,0,0-1.47-1.7,5.12,5.12,0,0,0-1.74-.28h-3.72a.51.51,0,0,0-.53.42c-.09.51-.17,1-.25,1.54s-.16,1.07-.25,1.61-.17,1.07-.25,1.61-.17,1.07-.26,1.61-.17,1.07-.25,1.61-.17,1.08-.25,1.61a.31.31,0,0,0,.31.39h1.77a.51.51,0,0,0,.52-.47c0-.33.1-.66.16-1,.07-.5.16-1,.23-1.49a.55.55,0,0,1,.59-.52h1.1a6.22,6.22,0,0,0,1.36-.14,3.48,3.48,0,0,0,2.62-2.26A5.77,5.77,0,0,0,944.78,536.87ZM942,537a2.65,2.65,0,0,1-.1.55,1.25,1.25,0,0,1-1,1,6.85,6.85,0,0,1-.78.07h-.89c0-.16.05-.31.07-.46l.24-1.5.09-.55a.28.28,0,0,1,.29-.27,5.7,5.7,0,0,1,1.37.07A.93.93,0,0,1,942,537Z" transform="translate(-935.77 -533.76)" fill="#083588"/><path d="M962.26,537.23h-1.71a.58.58,0,0,0-.52.28l-1.75,2.57-.71,1,0-.12-1-3.37a.53.53,0,0,0-.54-.41H954.3a.33.33,0,0,0-.33.47l1.94,5.69a.16.16,0,0,1,0,.16l-1.5,2.11-.32.45a.3.3,0,0,0,0,.33.25.25,0,0,0,.25.13h1.83a.49.49,0,0,0,.44-.24l3.77-5.43c.71-1,1.43-2.07,2.15-3.11a.68.68,0,0,0,.1-.21C962.63,537.37,962.48,537.23,962.26,537.23Z" transform="translate(-935.77 -533.76)" fill="#083588"/><path d="M952.72,537.23H951a.32.32,0,0,0-.34.29c0,.05,0,.11,0,.17s0,.19-.05.3a.37.37,0,0,1-.07-.1,1.52,1.52,0,0,0-.84-.63,4,4,0,0,0-1.07-.19,3.76,3.76,0,0,0-1.82.32,4.08,4.08,0,0,0-2.3,2.63,3.84,3.84,0,0,0,0,2.44A2.57,2.57,0,0,0,945.8,544a3.15,3.15,0,0,0,1.31.28,3.46,3.46,0,0,0,2-.54c.21-.13.39-.29.59-.44l-.06.43a.31.31,0,0,0,.31.39h1.6a.53.53,0,0,0,.52-.45c.07-.47.15-1,.22-1.43l.33-2.08c.13-.86.27-1.71.41-2.56A.31.31,0,0,0,952.72,537.23Zm-3.38,4.88a2,2,0,0,1-1.3.31,1.49,1.49,0,0,1-.84-.29,1.27,1.27,0,0,1-.48-.86,2.13,2.13,0,0,1,0-.25,2,2,0,0,1,1.61-2,1.8,1.8,0,0,1,1.19.11,1.25,1.25,0,0,1,.76,1.16A2,2,0,0,1,949.34,542.11Z" transform="translate(-935.77 -533.76)" fill="#083588"/><path d="M983.59,533.77h-1.68a.31.31,0,0,0-.33.26l-.06.39-.18,1.14c-.06.42-.13.84-.2,1.25L981,538c-.06.41-.13.83-.19,1.25l-.18,1.13c-.07.42-.13.84-.2,1.26s-.13.84-.2,1.27-.09.6-.14.9a.31.31,0,0,0,.34.38h1.42a.86.86,0,0,0,.23,0,.55.55,0,0,0,.37-.54c.06-.42.13-.83.2-1.25s.13-.84.2-1.27.13-.82.19-1.24.15-.91.22-1.36l.21-1.37c.08-.46.15-.91.22-1.37s.16-1,.25-1.52C983.94,533.94,983.83,533.77,983.59,533.77Zm-4.14,3.47h-1.77c-.2,0-.29.1-.32.3s-.05.29-.07.44h0l-.06-.08a1.48,1.48,0,0,0-.75-.6,4,4,0,0,0-1.82-.21,3.22,3.22,0,0,0-1.22.34,4.24,4.24,0,0,0-2.42,3.88,3,3,0,0,0,.18,1.15,2.64,2.64,0,0,0,1.34,1.57,3.42,3.42,0,0,0,1.92.26,3.34,3.34,0,0,0,1.73-.75,2.91,2.91,0,0,0,.27-.24.18.18,0,0,1,0,.06c0,.14,0,.28-.07.42a.31.31,0,0,0,.28.37h1.67a.47.47,0,0,0,.46-.4l.18-1.13c.07-.42.13-.83.2-1.25s.13-.82.19-1.24.14-.83.2-1.24.13-.84.2-1.25C979.78,537.41,979.67,537.24,979.45,537.24Zm-4.08,5.16a2,2,0,0,1-1.26-.14,1.25,1.25,0,0,1-.69-1.1,2,2,0,0,1,.51-1.53,1.94,1.94,0,0,1,1.26-.67,1.89,1.89,0,0,1,1,.13,1.27,1.27,0,0,1,.8,1A2.12,2.12,0,0,1,975.37,542.4Zm-3.9-6.58a2,2,0,0,0-.7-1.31,3,3,0,0,0-1.48-.65,7.15,7.15,0,0,0-1.31-.09h-3.42a.51.51,0,0,0-.54.4l-.21,1.29-.21,1.37-.24,1.49c-.08.54-.17,1.07-.25,1.61s-.18,1.15-.28,1.73-.21,1.34-.31,2a.71.71,0,0,0,0,.25c0,.15.15.23.34.23h1.9a.34.34,0,0,0,.32-.3c.07-.39.13-.79.19-1.19s.15-1,.23-1.45a.55.55,0,0,1,.64-.53h1.2a5.53,5.53,0,0,0,1.28-.15,3.32,3.32,0,0,0,2.09-1.38A4.74,4.74,0,0,0,971.47,535.82Zm-3,2.08a1.21,1.21,0,0,1-.91.64,4.29,4.29,0,0,1-.71.08h-1l.18-1.12c.06-.41.13-.83.19-1.25l0-.15a.31.31,0,0,1,.32-.27c.41,0,.83,0,1.24,0a1.38,1.38,0,0,1,.39.13.84.84,0,0,1,.49.76A2.09,2.09,0,0,1,968.5,537.9Z" transform="translate(-935.77 -533.76)" fill="#009cdd"/></svg>