<svg xmlns="http://www.w3.org/2000/svg" width="16.13" height="21" viewBox="0 0 16.13 21"><path d="M967.35,534.18H964v-.67a4.22,4.22,0,0,0-8.4,0v.67h-3.31a.56.56,0,0,0-.56.56V550.1a.56.56,0,0,0,.56.56h15a.57.57,0,0,0,.56-.56V534.74A.57.57,0,0,0,967.35,534.18Zm-7.51-3.4a2.8,2.8,0,0,1,3.08,2.73v.67h-6.16v-.67A2.8,2.8,0,0,1,959.84,530.78Zm-4.2,5.75a1,1,0,0,0-.41.79,1,1,0,0,0,1.9,0,.93.93,0,0,0-.37-.75V535.3h6.16v1.3a.95.95,0,1,0,1.12-.09V535.3h2.74v14.24H952.89V535.3h2.75Z" transform="translate(-951.77 -529.66)" fill="#a0a0a0"/></svg>