<svg xmlns="http://www.w3.org/2000/svg" width="97.6" height="20" viewBox="0 0 97.6 20"><path d="M914.8,543.33a1.89,1.89,0,0,1-.33-1.28v-6.54h2V533.9h-2V531h-2.18v2.91H911v1.61h1.25v7.32a2.61,2.61,0,0,0,.76,2.19,3.78,3.78,0,0,0,2.27.57h1.26v-1.93h-.74A1.27,1.27,0,0,1,914.8,543.33Zm39.79-.09a1.92,1.92,0,0,1-.34-1.32V530.2H952v12.53a2.67,2.67,0,0,0,.8,2.26,3.84,3.84,0,0,0,2.35.6h1v-2h-.46A1.36,1.36,0,0,1,954.59,543.24Zm-33-9.52a4.36,4.36,0,0,0-3,1,3.43,3.43,0,0,0-1.07,2.64v4.78a3.4,3.4,0,0,0,1.07,2.64,4.44,4.44,0,0,0,3,1,4.53,4.53,0,0,0,2.87-.83,3.79,3.79,0,0,0,1.22-2.34l-2.18-.33a2.77,2.77,0,0,1-.65,1.21,2.05,2.05,0,0,1-1.26.39,1.91,1.91,0,0,1-1.37-.53,2,2,0,0,1-.47-1.35v-1.24a.09.09,0,0,1,.1-.1h5.84v-3.28a3.46,3.46,0,0,0-1.06-2.64A4.34,4.34,0,0,0,921.56,533.72Zm1.87,5.1h-3.71v-1.31a2,2,0,0,1,.47-1.36,1.91,1.91,0,0,1,1.37-.53,1.93,1.93,0,0,1,1.4.53,2,2,0,0,1,.47,1.36Zm38.85-4.92-1.83,7.82s-.51-.15-.66-1.05l-1.57-6.77H955.8l2.09,7.89a5.23,5.23,0,0,0,1.75,2.5,13.1,13.1,0,0,1-.74,3.05,1.71,1.71,0,0,1-.71.78,2.84,2.84,0,0,1-1.05.22h-.37v1.82H957a6.22,6.22,0,0,0,2.24-.32,2.53,2.53,0,0,0,1.24-1.09,10.71,10.71,0,0,0,.89-2.36l3.29-12.47Zm-25.91-.24h0a3.77,3.77,0,0,1-5.38,0h0a7,7,0,0,0-3.85,1.05v10.88h2.34v-9.47a4.53,4.53,0,0,1,1.37-.27c1.12,0,1.57.95,1.67,1.91v1.72l0,6.11h2.38v-6.94s0-.41,0-.83c.07-1,.59-2,1.55-2h.07c1,0,1.36.38,1.42,1.39l0,8.35h2.34l0-7.62s0-.8,0-1.28C940,534.91,938.66,533.66,936.37,533.66Zm9.69.13h0a8.06,8.06,0,0,0-4.09,1.07v14.68h2.4v-4.8h2.06c3.26,0,4-2,4-4.28,0,0,0-2.63,0-3.13C950.44,535.16,948.4,533.79,946.06,533.79Zm2,6.56c0,1.73-.78,2.2-1.7,2.2h-2v-6.36a5.15,5.15,0,0,1,1.75-.42c1.22,0,1.88.53,1.94,1.56Z" transform="translate(-911.04 -530.16)" fill="#fa419b"/><path d="M1008.64,533.65h-3l-3.66,4.44v-7.93H999.5V545.6h2.44v-4.1l.72-.82,3.14,4.91h2.79l-4.47-6.56Zm-31.15,9.68a1.89,1.89,0,0,1-.33-1.28v-6.54h2V533.9h-2V531H975v2.91h-1.25v1.61H975v7.32a2.61,2.61,0,0,0,.76,2.19,3.78,3.78,0,0,0,2.27.57h1.26v-1.93h-.74A1.27,1.27,0,0,1,977.49,543.33Zm6.87-9.61a4.41,4.41,0,0,0-3,1,3.44,3.44,0,0,0-1.08,2.64v4.75a3.44,3.44,0,0,0,1.07,2.66,5.21,5.21,0,0,0,6.11,0,3.45,3.45,0,0,0,1.08-2.66v-4.75a3.44,3.44,0,0,0-1.08-2.64A4.45,4.45,0,0,0,984.36,533.72Zm1.89,8.24a1.91,1.91,0,0,1-.5,1.37,2,2,0,0,1-1.39.52,2,2,0,0,1-1.38-.52,1.94,1.94,0,0,1-.48-1.37v-4.45a1.74,1.74,0,0,1,1.86-1.89,2,2,0,0,1,1.39.53,1.92,1.92,0,0,1,.5,1.36Zm10.13-7.79a5.32,5.32,0,0,0-2.25-.45,4.39,4.39,0,0,0-3,1,3.47,3.47,0,0,0-1.07,2.64v4.75a3.47,3.47,0,0,0,1.07,2.67,4.47,4.47,0,0,0,3,1,4.59,4.59,0,0,0,3-.95,3.1,3.1,0,0,0,1.08-2.44v-.64l-2.26-.3v.8a1.57,1.57,0,0,1-.49,1.15,2,2,0,0,1-1.37.48,1.89,1.89,0,0,1-1.37-.53,2,2,0,0,1-.47-1.35v-4.48a2,2,0,0,1,.47-1.36,1.89,1.89,0,0,1,1.37-.53,2,2,0,0,1,1.37.49,1.53,1.53,0,0,1,.49,1.14v.69l2.26-.38v-.44a3.16,3.16,0,0,0-1.87-3Zm-24.72,5.53a13.05,13.05,0,0,0-1.59-.79c-.58-.25-1.3-.43-1.57-.56a2.2,2.2,0,0,1-.68-.52,1.18,1.18,0,0,1-.28-.81,1.46,1.46,0,0,1,.42-1,1.89,1.89,0,0,1,1.3-.44,1.76,1.76,0,0,1,1.22.44,2.38,2.38,0,0,1,.73,1.64l1.94-.75a3.76,3.76,0,0,0-1.15-2.18,4.12,4.12,0,0,0-2.79-.89,4.38,4.38,0,0,0-2.84.87,3.47,3.47,0,0,0-.53,4.18,3.71,3.71,0,0,0,1.07,1.06,12.69,12.69,0,0,0,1.52.75c.56.23,1.28.41,1.55.54a2.13,2.13,0,0,1,.72.54,1.27,1.27,0,0,1,.31.85,1.41,1.41,0,0,1-.44,1.06,2,2,0,0,1-1.29.41,2.25,2.25,0,0,1-1.37-.42,2.74,2.74,0,0,1-.88-1.75l-1.92.46a3.81,3.81,0,0,0,1.32,2.55,5,5,0,0,0,3,.84,4.07,4.07,0,0,0,2.75-.87,3.26,3.26,0,0,0,.56-4.09A3.55,3.55,0,0,0,971.66,539.7Z" transform="translate(-911.04 -530.16)" fill="#fa419b"/></svg>