<svg xmlns="http://www.w3.org/2000/svg" width="13" height="13.72" viewBox="0 0 13 13.72"><path d="M958.69,533.3v.34a2.4,2.4,0,0,0-1.34.34,1.77,1.77,0,0,0-.31,1.27V540a5.12,5.12,0,0,0,.39,2.21,2.76,2.76,0,0,0,2.73,1.44,3,3,0,0,0,3-1.48,5.88,5.88,0,0,0,.42-2.55V536a3,3,0,0,0-.35-1.84,2.08,2.08,0,0,0-1.33-.47v-.34H966v.34a2,2,0,0,0-1.36.5,3.21,3.21,0,0,0-.32,1.81v3.68a6.12,6.12,0,0,1-.58,2.91c-.7,1.29-2,1.93-4,1.93s-3.27-.64-4-1.9a5.51,5.51,0,0,1-.57-2.69v-4.63a1.82,1.82,0,0,0-.3-1.26,2.41,2.41,0,0,0-1.32-.35v-.34Z" transform="translate(-953.34 -533.3)"/><path d="M953.34,547v-.89h13V547Z" transform="translate(-953.34 -533.3)"/></svg>