<svg xmlns="http://www.w3.org/2000/svg" width="32.21" height="10.4" viewBox="0 0 32.21 10.4"><path d="M950,539.33c0-.17-.08-.34-.11-.51l-.15-.83c0-.23-.08-.46-.13-.69l-.06-.35c-.05-.27-.12-.54-.17-.81a1.1,1.1,0,0,0-.19-.46,1.19,1.19,0,0,0-1-.53h-4.33c-.09,0-.13,0-.14.12a.2.2,0,0,1,0,.07c0,.11,0,.14.12.15l.39.08.58.17c.22.07.45.13.66.22s.57.24.84.37a18.84,18.84,0,0,1,3.77,3.43Z" transform="translate(-943.74 -534.96)" fill="#f8b112"/><path d="M975.93,545.11a2.47,2.47,0,0,0-.06-.29c0-.15,0-.29-.08-.43s-.07-.35-.11-.52-.07-.3-.11-.45l-.09-.42c0-.16-.05-.32-.08-.48s-.08-.34-.11-.51,0-.26-.08-.39-.08-.31-.11-.46-.12-.56-.17-.84l-.09-.4-.09-.46c0-.16-.07-.33-.1-.49s0-.28-.08-.42-.12-.52-.17-.78l-.15-.73a2.84,2.84,0,0,0-.06-.31c0-.16-.08-.3-.11-.45s-.12-.61-.18-.91,0-.21-.28-.21H971.7a1.5,1.5,0,0,0-.51.07,1.33,1.33,0,0,0-.46.31,2.53,2.53,0,0,0-.38.75c-.1.23-.19.46-.29.68s-.15.36-.23.54-.19.47-.29.7-.15.36-.23.54-.17.45-.27.67l-.37.87c-.1.22-.19.45-.28.68s-.15.34-.23.51-.18.47-.28.7-.24.54-.35.82-.19.47-.28.7l-.3.68c-.1.26-.21.51-.32.76,0,.07,0,.1.07.1h2.55a.18.18,0,0,0,.13-.08,1.21,1.21,0,0,0,.08-.25l.14-.39c.08-.24.17-.47.25-.7,0-.07.06-.11.14-.11h3.12a.1.1,0,0,1,.12.09c0,.15.07.31.11.47s.06.24.08.36l.09.51c0,.07.06.09.13.09h2.2C975.94,545.23,976,545.22,975.93,545.11Zm-3.23-3.46h-2c-.07,0-.08,0-.06-.1l.15-.42c0-.15.11-.3.17-.45s.15-.42.23-.63l.28-.81c.08-.2.16-.4.23-.6s.11-.32.16-.48A1.65,1.65,0,0,1,972,538a.26.26,0,0,1,0,.1c0,.17.07.34.11.52l.06.3c0,.25.11.5.17.75l.06.31.09.48c0,.11.05.22.07.32s.11.49.17.74c0,0,0,.07,0,.11S972.76,541.65,972.7,541.65ZM955.21,537l.29-.69c.08-.18.15-.37.23-.55s.14-.33.22-.5,0-.1-.07-.09h-2.57a.15.15,0,0,0-.12.08c-.11.25-.2.51-.29.76l-.32.78c-.07.17-.13.34-.19.51l-.32.78c-.09.22-.17.45-.26.68s-.16.42-.25.63-.15.37-.23.55l-.21.52c-.09.25-.18.49-.28.74s-.17.43-.25.64a.7.7,0,0,1-.06.09h0a.28.28,0,0,1,0-.09s0-.09,0-.13-.07-.33-.11-.5,0-.34-.08-.52,0-.22-.07-.33l-.12-.57c-.41-2-2.56-3.77-4-3.55.42.22.53.31.67.55s.12.36.17.54a2.45,2.45,0,0,1,.08.29c0,.11.05.22.07.33s.08.26.11.39.07.27.11.4.06.2.08.3.09.43.15.64.13.48.19.71,0,.22.08.33.08.24.11.36.08.38.13.57.12.43.17.64.11.43.17.64.11.41.16.61.09.39.14.59.13.48.19.73l.09.32a.1.1,0,0,0,.11.08h2.61a.1.1,0,0,0,.08-.06c.1-.22.19-.45.29-.68l.43-1c.09-.21.17-.43.26-.64s.29-.65.42-1,.19-.47.29-.7.2-.49.31-.73.22-.54.34-.81l.43-1,.22-.51c.07-.18.15-.35.22-.52Zm11.52,5.31a3,3,0,0,0,0-.43,3.05,3.05,0,0,0,0-.41,2.16,2.16,0,0,0-.29-.78,3,3,0,0,0-1.06-1c-.41-.25-.84-.47-1.26-.71a2.93,2.93,0,0,1-.84-.6.6.6,0,0,1,0-.76,1.13,1.13,0,0,1,.66-.41,2.84,2.84,0,0,1,.66-.09,4.4,4.4,0,0,1,1.31.16c.28.07.55.2.83.29a.1.1,0,0,0,.09,0l.06-.2c0-.15,0-.29.08-.44s.12-.47.17-.71l.12-.57c0-.15,0-.19-.14-.23l-.3-.08-.63-.18c-.18,0-.36,0-.54-.07l-.16,0a1.55,1.55,0,0,0-.29,0,8.47,8.47,0,0,0-1.12,0,6.78,6.78,0,0,0-.88.16,7.1,7.1,0,0,0-.81.3,3.44,3.44,0,0,0-1,.63,2.72,2.72,0,0,0-.67.9,3.21,3.21,0,0,0-.22.54,2.85,2.85,0,0,0-.07.51,2.21,2.21,0,0,0,.11,1,2.39,2.39,0,0,0,.53.86,5.79,5.79,0,0,0,1.64,1.13,10.28,10.28,0,0,1,.91.53.79.79,0,0,1,.41.66.78.78,0,0,1-.28.63,2.16,2.16,0,0,1-1.32.39c-.19,0-.38,0-.57,0a3.48,3.48,0,0,1-1.11-.22,8.93,8.93,0,0,1-.85-.35c-.07,0-.1,0-.11.05s0,.26-.08.39l-.18.77-.06.3c0,.17-.07.34-.11.51s0,.18.12.23l.45.14.39.11.47.09c.25,0,.5.09.75.1.42,0,.84,0,1.37,0a6.74,6.74,0,0,0,1-.17,5.49,5.49,0,0,0,.78-.26,3.59,3.59,0,0,0,1.52-1.2,2.84,2.84,0,0,0,.5-1.31A.5.5,0,0,0,966.73,542.29Zm-7.25-6.18c.06-.24.13-.48.17-.73s.1-.23-.17-.23h-2.31a.13.13,0,0,0-.09,0,.66.66,0,0,0-.06.2c0,.16-.06.31-.09.47l-.06.31c0,.13-.07.27-.1.41s-.1.5-.16.76-.07.28-.1.43,0,.24-.08.36l-.09.46c-.05.24-.11.47-.16.71s-.09.5-.14.74,0,.2-.07.3l-.18.83c0,.13,0,.26-.08.39s-.07.31-.11.47l-.09.45c0,.15-.07.31-.11.47s0,.25-.07.38-.12.51-.17.77-.1.48-.15.73a1.74,1.74,0,0,1-.07.29c0,.1,0,.11.08.11h2.33s.12,0,.16,0,0-.09,0-.14l.18-.79c0-.13,0-.26.08-.39s.12-.54.17-.81l.09-.41c0-.14.07-.28.1-.43s.09-.47.14-.71.12-.5.18-.75l.15-.78.09-.36.15-.68c0-.14,0-.28.07-.42l.12-.62s0,0,0,0,.08-.31.11-.47.06-.29.09-.43.08-.32.11-.49S959.45,536.24,959.48,536.11Z" transform="translate(-943.74 -534.96)" fill="#0e4595"/></svg>