<svg xmlns="http://www.w3.org/2000/svg" width="20.41" height="22" viewBox="0 0 20.41 22"><path d="M14.91,12.22a.45.45,0,0,0-.45.44v8.4l-.08,0-6-6a.94.94,0,0,0-1.27,0L1,20.29l-.08,0V3.55a1,1,0,0,1,1-1H6.34a.45.45,0,0,0,0-.89H1.93A1.92,1.92,0,0,0,0,3.55v16.7a1,1,0,0,0,.54.86,1,1,0,0,0,1-.14l6.18-5.18,6,5.94a.93.93,0,0,0,.66.27.89.89,0,0,0,.36-.07,1,1,0,0,0,.58-.87v-8.4A.44.44,0,0,0,14.91,12.22ZM17.86.1a2.88,2.88,0,0,0-3.1,1.11A2.86,2.86,0,0,0,11.67.1,3.53,3.53,0,0,0,9.12,3.81c.18,3.39,5.22,6.19,5.43,6.3a.42.42,0,0,0,.21.06.43.43,0,0,0,.22-.06c.21-.11,5.25-2.91,5.43-6.3A3.53,3.53,0,0,0,17.86.1Zm-3.1,9.11c-.93-.56-4.62-2.9-4.75-5.45A2.65,2.65,0,0,1,11.89,1a2.11,2.11,0,0,1,.54-.07,2.18,2.18,0,0,1,1.94,1.37.46.46,0,0,0,.79,0A2.1,2.1,0,0,1,17.64,1a2.65,2.65,0,0,1,1.88,2.8C19.39,6.3,15.7,8.65,14.76,9.21Z" fill="#a0a0a0"/></svg>